HIERARCHY
ROOT SpineBase
{
  OFFSET 0.000000 0.000000 0.000000
  CHANNELS 6 Xposition Yposition Zposition Zrotation Xrotation Yrotation
  JOINT SpineMid
  {
    OFFSET -0.000000 31.594570 0.000000
    CHANNELS 3 Zrotation Xrotation Yrotation
    JOINT SpineShoulder
    {
      OFFSET -0.298752 23.473027 -0.696381
      CHANNELS 3 Zrotation Xrotation Yrotation
      JOINT Neck
      {
        OFFSET -0.190333 7.766689 -0.541425
        CHANNELS 3 Zrotation Xrotation Yrotation
        JOINT Head
        {
          OFFSET -1.660724 12.450337 4.651725
          CHANNELS 3 Zrotation Xrotation Yrotation
          End Site
          {
            OFFSET 0 0 0
          }
        }
      }
      JOINT ShoulderLeft
      {
        OFFSET -5.930158 -3.256844 12.037836
        CHANNELS 3 Zrotation Xrotation Yrotation
        JOINT ElbowLeft
        {
          OFFSET 0.436440 -29.802480 5.548539
          CHANNELS 3 Zrotation Xrotation Yrotation
          JOINT WristLeft
          {
            OFFSET 1.153053 -23.294719 9.190776
            CHANNELS 3 Zrotation Xrotation Yrotation
            JOINT HandLeft
            {
              OFFSET 3.781859 -4.518334 -2.638660
              CHANNELS 3 Zrotation Xrotation Yrotation
              JOINT HandTipLeft
              {
                OFFSET -0.424223 -1.428535 -0.415473
                CHANNELS 3 Zrotation Xrotation Yrotation
                End Site
                {
                  OFFSET 0 0 0
                }
              }
              JOINT ThumbLeft
              {
                OFFSET 0.146972 -0.426212 -3.405127
                CHANNELS 3 Zrotation Xrotation Yrotation
                End Site
                {
                  OFFSET 0 0 0
                }
              }
            }
          }
        }
      }
      JOINT ShoulderRight
      {
        OFFSET -4.088104 -4.138130 -9.940674
        CHANNELS 3 Zrotation Xrotation Yrotation
        JOINT ElbowRight
        {
          OFFSET -3.556856 -27.692692 -2.247843
          CHANNELS 3 Zrotation Xrotation Yrotation
          JOINT WristRight
          {
            OFFSET -4.974437 -24.693422 4.304882
            CHANNELS 3 Zrotation Xrotation Yrotation
            JOINT HandRight
            {
              OFFSET 1.088825 -4.332061 1.806071
              CHANNELS 3 Zrotation Xrotation Yrotation
              JOINT HandTipRight
              {
                OFFSET 0.198062 -7.038812 3.385631
                CHANNELS 3 Zrotation Xrotation Yrotation
                End Site
                {
                  OFFSET 0 0 0
                }
              }
              JOINT ThumbRight
              {
                OFFSET -4.574993 1.018785 0.315659
                CHANNELS 3 Zrotation Xrotation Yrotation
                End Site
                {
                  OFFSET 0 0 0
                }
              }
            }
          }
        }
      }
    }
  }
  JOINT HipLeft
  {
    OFFSET -1.660058 0.370209 -2.677403
    CHANNELS 3 Zrotation Xrotation Yrotation
    JOINT KneeLeft
    {
      OFFSET 11.850193 -26.545283 7.483000
      CHANNELS 3 Zrotation Xrotation Yrotation
      JOINT AnkleLeft
      {
        OFFSET 12.271058 -22.967104 11.006293
        CHANNELS 3 Zrotation Xrotation Yrotation
        JOINT FootLeft
        {
          OFFSET -6.329369 -7.743020 -2.177006
          CHANNELS 3 Zrotation Xrotation Yrotation
          End Site
          {
            OFFSET 0 0 0
          }
        }
      }
    }
  }
  JOINT HipRight
  {
    OFFSET -0.442601 1.100284 -3.820539
    CHANNELS 3 Zrotation Xrotation Yrotation
    JOINT KneeRight
    {
      OFFSET 4.043925 -25.123664 2.110186
      CHANNELS 3 Zrotation Xrotation Yrotation
      JOINT AnkleRight
      {
        OFFSET 8.380607 -32.170375 0.895092
        CHANNELS 3 Zrotation Xrotation Yrotation
        JOINT FootRight
        {
          OFFSET -0.974464 -7.235065 2.222560
          CHANNELS 3 Zrotation Xrotation Yrotation
          End Site
          {
            OFFSET 0 0 0
          }
        }
      }
    }
  }
}
MOTION
Frames: 5
Frame Time: 0.033333
95.927416 65.966930 321.764493 0.832302 -2.556076 3.140671 -0.547003 0.096609 -3.133184 -0.386925 0.143529 -0.032951 -3.510156 0.763473 1.313057 0.000000 0.000000 0.000000 -31.624473 8.305668 -2.906953 31.989882 -3.181872 6.908011 14.440521 3.906406 -5.061020 -2.203651 8.168165 -3.820853 0.000000 0.000000 0.000000 0.000000 0.000000 0.000000 -27.531505 -11.489176 1.840797 -52.579298 20.230654 2.408631 4.165188 -26.592216 -49.586873 26.629366 -3.252682 3.294831 0.000000 0.000000 0.000000 0.000000 0.000000 0.000000 11.860555 -1.065201 -1.112535 -35.676046 29.352743 9.775813 42.355361 -0.529303 -24.487264 0.000000 0.000000 0.000000 -18.784752 7.965288 -2.245187 21.161925 -3.652520 1.923940 -8.595766 17.334871 -3.737591 0.000000 0.000000 0.000000
96.100492 65.886162 321.789827 1.000643 -2.611012 1.874244 -0.591057 0.075401 -1.858467 -0.387526 0.106026 -0.029540 -4.143879 0.784826 1.509861 0.000000 0.000000 0.000000 -30.606719 -0.183167 -5.188962 30.282457 5.236278 4.449786 13.646354 2.180789 -5.792630 -2.206942 9.630334 -2.680523 0.000000 0.000000 0.000000 0.000000 0.000000 0.000000 -27.658768 -11.401035 1.885614 -55.665558 24.660378 5.612986 15.633771 -21.600583 -33.141312 28.969382 -21.179658 -2.404406 0.000000 0.000000 0.000000 0.000000 0.000000 0.000000 11.664819 -0.288503 0.251831 -31.866802 26.491297 7.618295 39.658583 -3.230311 -21.022242 0.000000 0.000000 0.000000 -20.940345 7.756841 -0.954324 23.058440 -3.576817 2.175973 -7.050347 10.259439 -2.728392 0.000000 0.000000 0.000000
96.257129 65.832185 321.813606 1.148820 -2.658242 0.625049 -0.619518 0.036677 -0.601894 -0.369190 0.051269 -0.025840 -4.957110 0.866750 1.784464 0.000000 0.000000 0.000000 -30.225107 -5.827671 -6.614224 29.389063 10.910452 2.925324 9.399732 0.308123 -4.919628 1.495039 6.993322 -1.301890 0.000000 0.000000 0.000000 0.000000 0.000000 0.000000 -27.785607 -11.285759 1.943097 -54.432413 26.250153 6.281620 19.294150 -19.200434 -25.722761 27.455080 -28.381319 -4.286487 0.000000 0.000000 0.000000 0.000000 0.000000 0.000000 10.112414 0.834261 1.399299 -28.838545 25.086910 7.013475 38.170433 -13.846993 -9.682864 0.000000 0.000000 0.000000 -22.136212 7.570317 0.327642 24.138496 -3.718317 2.324980 -5.441868 1.338789 -1.256810 0.000000 0.000000 0.000000
96.364663 65.786244 321.834205 1.209064 -2.700965 -0.849004 -0.631519 -0.009442 0.875077 -0.329656 -0.008537 -0.024077 -5.600056 1.016877 2.027492 0.000000 0.000000 0.000000 -30.245859 -6.861234 -6.846388 29.254008 12.048222 2.630145 7.983583 1.137612 -3.566821 5.048819 -5.201232 1.653533 0.000000 0.000000 0.000000 0.000000 0.000000 0.000000 -27.854863 -11.164855 2.005490 -50.078412 21.836230 2.852445 17.052096 -15.388064 -25.531709 29.459187 -22.947824 -1.018576 0.000000 0.000000 0.000000 0.000000 0.000000 0.000000 10.024266 0.378703 2.589520 -31.944842 27.969459 9.229691 46.114467 -31.864569 12.518536 0.000000 0.000000 0.000000 -21.469583 7.337492 1.818777 23.360292 -3.989290 2.261038 -3.388723 -8.057116 0.633196 0.000000 0.000000 0.000000
96.451787 65.769546 321.858230 1.233890 -2.741886 -1.558841 -0.637420 -0.052112 1.586034 -0.289936 -0.064310 -0.023447 -6.070378 1.200324 2.221893 0.000000 0.000000 0.000000 -30.972065 -2.642578 -5.793381 30.182586 8.052239 3.728984 8.050354 0.873726 -3.797194 5.075522 -6.577640 2.579452 0.000000 0.000000 0.000000 0.000000 0.000000 0.000000 -27.900608 -11.049050 2.068315 -48.784564 23.251569 3.358217 23.637541 -22.905223 -24.450529 21.280070 -17.066920 0.601674 0.000000 0.000000 0.000000 0.000000 0.000000 0.000000 10.440133 0.110784 3.238085 -34.342442 29.753900 10.636204 46.061183 -41.075820 23.139477 0.000000 0.000000 0.000000 -21.999561 7.239719 2.548987 23.868846 -4.046918 2.348025 -6.870735 -3.539983 -1.147555 0.000000 0.000000 0.000000
